<svg xmlns="http://www.w3.org/2000/svg" width="327.85" height="241.756">
  <g fill="currentColor">
    <path d="M204.35 0s29 19 38 49c0 0-10.375-9-22.5-15-.75-11-15.5-34-15.5-34zM141.85 130.5s3.334-13 22.667-13.666c23.34-.805 42 46 .833 51.666 0 0 15.834-11 11-28-7 11.5-16 13.5-16 13.5s17.5-36.5-18.5-23.5zM140.35 22c-19.5 1.5-124.5 82-67 189 0 0-27.5-20.166-28.166-51.5-31 19.334-29.834 74-29.834 74-33.166-45-21.5-197.334 125-211.5z"/>
    <path fill-rule="evenodd" d="M174.85 194c-22.246-6.033-41-23.5-41-52.5 0-26.5 20.254-53.5 53.5-53.5 28.166 0 48.5 13 69.5 41l26-25.5c-12-26.5-59-81.5-128-82.5 0 0 15 3 35 19-54.32-6.69-110.326 44.105-110.326 103.913 0 57.6 45.824 101.613 96.826 97.587 57-4.5 69.5-65 107.5-70 0 0-16.5 13-22 43 31.5-43.5 66-46 66-46-79-46-94 41.5-153 25.5zm72.5-107.5c-6.5-4.5-15.5-2-15.5-2l-12.333-21c16 3.334 27.833 23 27.833 23z"/>
  </g>
</svg>
